<svg width="230" height="230" viewBox="0 0 230 230" fill="none" xmlns="http://www.w3.org/2000/svg">
<path d="M10 12C10 10.8954 10.8954 10 12 10H66C90.8528 10 111 30.1472 111 55V109C111 110.105 110.105 111 109 111H55C30.1472 111 10 90.8528 10 66V12Z" fill="#3E5F3E"/>
<path d="M10 218C10 219.105 10.8954 220 12 220H66C90.8528 220 111 199.853 111 175V121C111 119.895 110.105 119 109 119H55C30.1472 119 10 139.147 10 164V218Z" fill="#A8B697"/>
<path d="M220 12C220 10.8954 219.105 10 218 10H164C139.147 10 119 30.1472 119 55V109C119 110.105 119.895 111 121 111H175C199.853 111 220 90.8528 220 66V12Z" fill="#6DA75D"/>
<path d="M212 218C212 219.105 211.105 220 210 220H156C131.147 220 111 199.853 111 175V121C111 119.895 111.895 119 113 119H167C191.853 119 212 139.147 212 164V218Z" fill="#A25B5B"/>
</svg>
