<svg width="500" height="400" viewBox="0 0 500 400" fill="none" xmlns="http://www.w3.org/2000/svg">
<rect width="500" height="400" rx="5" fill="#17181E"/>
<rect x="20" y="20" width="460" height="40" rx="15" fill="#2A2B33"/>
<path d="M31.8331 51V29.9091H36.2923V47.3235H45.3342V51H31.8331ZM54.4818 51.3089C52.8822 51.3089 51.4988 50.9691 50.3316 50.2894C49.1713 49.6029 48.2754 48.6486 47.6438 47.4265C47.0121 46.1976 46.6963 44.773 46.6963 43.1527C46.6963 41.5187 47.0121 40.0907 47.6438 38.8686C48.2754 37.6397 49.1713 36.6854 50.3316 36.0057C51.4988 35.3191 52.8822 34.9759 54.4818 34.9759C56.0815 34.9759 57.4615 35.3191 58.6217 36.0057C59.7889 36.6854 60.6883 37.6397 61.3199 38.8686C61.9515 40.0907 62.2673 41.5187 62.2673 43.1527C62.2673 44.773 61.9515 46.1976 61.3199 47.4265C60.6883 48.6486 59.7889 49.6029 58.6217 50.2894C57.4615 50.9691 56.0815 51.3089 54.4818 51.3089ZM54.5024 47.9105C55.2302 47.9105 55.8378 47.7045 56.3252 47.2926C56.8127 46.8738 57.18 46.304 57.4271 45.5831C57.6812 44.8622 57.8082 44.0418 57.8082 43.1218C57.8082 42.2018 57.6812 41.3814 57.4271 40.6605C57.18 39.9396 56.8127 39.3698 56.3252 38.951C55.8378 38.5322 55.2302 38.3228 54.5024 38.3228C53.7678 38.3228 53.1499 38.5322 52.6487 38.951C52.1544 39.3698 51.7802 39.9396 51.5262 40.6605C51.2791 41.3814 51.1555 42.2018 51.1555 43.1218C51.1555 44.0418 51.2791 44.8622 51.5262 45.5831C51.7802 46.304 52.1544 46.8738 52.6487 47.2926C53.1499 47.7045 53.7678 47.9105 54.5024 47.9105ZM71.3764 57.2614C69.9552 57.2614 68.7366 57.0657 67.7205 56.6744C66.7113 56.2899 65.908 55.7647 65.3107 55.0987C64.7134 54.4328 64.3255 53.6844 64.147 52.8537L68.2045 52.3079C68.3281 52.6237 68.5238 52.9189 68.7915 53.1935C69.0593 53.4682 69.4128 53.6879 69.8522 53.8526C70.2985 54.0243 70.8409 54.1101 71.4794 54.1101C72.4337 54.1101 73.2198 53.8767 73.8377 53.4098C74.4624 52.9498 74.7748 52.1774 74.7748 51.0927V48.1989H74.5895C74.3972 48.6383 74.1089 49.0536 73.7244 49.445C73.3399 49.8363 72.8456 50.1555 72.2414 50.4027C71.6373 50.6499 70.9164 50.7734 70.0788 50.7734C68.8911 50.7734 67.8097 50.4988 66.8348 49.9496C65.8668 49.3935 65.0944 48.5456 64.5177 47.4059C63.9479 46.2594 63.663 44.8107 63.663 43.06C63.663 41.2681 63.9547 39.7714 64.5383 38.57C65.1219 37.3685 65.8977 36.4691 66.8657 35.8718C67.8406 35.2745 68.9082 34.9759 70.0685 34.9759C70.9542 34.9759 71.6956 35.1269 72.2929 35.429C72.8902 35.7242 73.3708 36.0949 73.7347 36.5412C74.1054 36.9806 74.3904 37.4131 74.5895 37.8388H74.7542V35.1818H79.1104V51.1545C79.1104 52.5001 78.7809 53.6261 78.1218 54.5323C77.4627 55.4386 76.5496 56.1183 75.3824 56.5714C74.2221 57.0314 72.8868 57.2614 71.3764 57.2614ZM71.4691 47.478C72.1762 47.478 72.7735 47.3029 73.261 46.9528C73.7553 46.5958 74.1329 46.0877 74.3938 45.4286C74.6615 44.7627 74.7954 43.9663 74.7954 43.0394C74.7954 42.1126 74.665 41.3093 74.4041 40.6296C74.1432 39.9431 73.7656 39.411 73.2713 39.0334C72.777 38.6558 72.1762 38.467 71.4691 38.467C70.7482 38.467 70.1406 38.6626 69.6463 39.054C69.152 39.4384 68.7778 39.974 68.5238 40.6605C68.2697 41.3471 68.1427 42.14 68.1427 43.0394C68.1427 43.9525 68.2697 44.7421 68.5238 45.408C68.7846 46.0671 69.1588 46.5786 69.6463 46.9425C70.1406 47.2995 70.7482 47.478 71.4691 47.478ZM88.8785 51.3089C87.2789 51.3089 85.8955 50.9691 84.7283 50.2894C83.5681 49.6029 82.6721 48.6486 82.0405 47.4265C81.4089 46.1976 81.093 44.773 81.093 43.1527C81.093 41.5187 81.4089 40.0907 82.0405 38.8686C82.6721 37.6397 83.5681 36.6854 84.7283 36.0057C85.8955 35.3191 87.2789 34.9759 88.8785 34.9759C90.4782 34.9759 91.8582 35.3191 93.0185 36.0057C94.1856 36.6854 95.085 37.6397 95.7166 38.8686C96.3482 40.0907 96.6641 41.5187 96.6641 43.1527C96.6641 44.773 96.3482 46.1976 95.7166 47.4265C95.085 48.6486 94.1856 49.6029 93.0185 50.2894C91.8582 50.9691 90.4782 51.3089 88.8785 51.3089ZM88.8991 47.9105C89.6269 47.9105 90.2345 47.7045 90.7219 47.2926C91.2094 46.8738 91.5767 46.304 91.8239 45.5831C92.0779 44.8622 92.2049 44.0418 92.2049 43.1218C92.2049 42.2018 92.0779 41.3814 91.8239 40.6605C91.5767 39.9396 91.2094 39.3698 90.7219 38.951C90.2345 38.5322 89.6269 38.3228 88.8991 38.3228C88.1645 38.3228 87.5466 38.5322 87.0455 38.951C86.5511 39.3698 86.177 39.9396 85.9229 40.6605C85.6758 41.3814 85.5522 42.2018 85.5522 43.1218C85.5522 44.0418 85.6758 44.8622 85.9229 45.5831C86.177 46.304 86.5511 46.8738 87.0455 47.2926C87.5466 47.7045 88.1645 47.9105 88.8991 47.9105Z" fill="#0A0A0A"/>
<rect x="420" y="30" width="20" height="20" rx="10" fill="#17181E"/>
<rect x="450" y="30" width="20" height="20" rx="10" fill="#17181E"/>
<rect x="20" y="70" width="145" height="310" rx="15" fill="#2A2B33"/>
<rect x="35" y="85" width="115" height="25" rx="12.5" fill="#17181E"/>
<rect x="35" y="121" width="115" height="25" rx="12.5" fill="#17181E"/>
<rect x="35" y="157" width="115" height="25" rx="12.5" fill="#17181E"/>
<rect x="35" y="193" width="115" height="25" rx="12.5" fill="#17181E"/>
<g opacity="0.8">
<rect x="175" y="70" width="79" height="90" rx="15" fill="#2A2B33"/>
<rect x="259" y="70" width="108" height="90" rx="15" fill="#2A2B33"/>
<rect x="372" y="70" width="108" height="90" rx="15" fill="#2A2B33"/>
<rect x="175" y="165" width="305" height="53" rx="15" fill="#2A2B33"/>
<rect x="175" y="223" width="150" height="157" rx="15" fill="#2A2B33"/>
<rect x="330" y="223" width="150" height="157" rx="15" fill="#2A2B33"/>
</g>
</svg>
