<svg width="500" height="400" viewBox="0 0 500 400" fill="none" xmlns="http://www.w3.org/2000/svg">
<rect width="500" height="400" rx="5" fill="#F1F2F7"/>
<rect x="20" y="20" width="460" height="40" rx="15" fill="white"/>
<path d="M31.8331 50V28.9091H36.2923V46.3235H45.3342V50H31.8331ZM54.4818 50.3089C52.8822 50.3089 51.4988 49.9691 50.3316 49.2894C49.1713 48.6029 48.2754 47.6486 47.6438 46.4265C47.0121 45.1976 46.6963 43.773 46.6963 42.1527C46.6963 40.5187 47.0121 39.0907 47.6438 37.8686C48.2754 36.6397 49.1713 35.6854 50.3316 35.0057C51.4988 34.3191 52.8822 33.9759 54.4818 33.9759C56.0815 33.9759 57.4615 34.3191 58.6217 35.0057C59.7889 35.6854 60.6883 36.6397 61.3199 37.8686C61.9515 39.0907 62.2673 40.5187 62.2673 42.1527C62.2673 43.773 61.9515 45.1976 61.3199 46.4265C60.6883 47.6486 59.7889 48.6029 58.6217 49.2894C57.4615 49.9691 56.0815 50.3089 54.4818 50.3089ZM54.5024 46.9105C55.2302 46.9105 55.8378 46.7045 56.3252 46.2926C56.8127 45.8738 57.18 45.304 57.4271 44.5831C57.6812 43.8622 57.8082 43.0418 57.8082 42.1218C57.8082 41.2018 57.6812 40.3814 57.4271 39.6605C57.18 38.9396 56.8127 38.3698 56.3252 37.951C55.8378 37.5322 55.2302 37.3228 54.5024 37.3228C53.7678 37.3228 53.1499 37.5322 52.6487 37.951C52.1544 38.3698 51.7802 38.9396 51.5262 39.6605C51.2791 40.3814 51.1555 41.2018 51.1555 42.1218C51.1555 43.0418 51.2791 43.8622 51.5262 44.5831C51.7802 45.304 52.1544 45.8738 52.6487 46.2926C53.1499 46.7045 53.7678 46.9105 54.5024 46.9105ZM71.3764 56.2614C69.9552 56.2614 68.7366 56.0657 67.7205 55.6744C66.7113 55.2899 65.908 54.7647 65.3107 54.0987C64.7134 53.4328 64.3255 52.6844 64.147 51.8537L68.2045 51.3079C68.3281 51.6237 68.5238 51.9189 68.7915 52.1935C69.0593 52.4682 69.4128 52.6879 69.8522 52.8526C70.2985 53.0243 70.8409 53.1101 71.4794 53.1101C72.4337 53.1101 73.2198 52.8767 73.8377 52.4098C74.4624 51.9498 74.7748 51.1774 74.7748 50.0927V47.1989H74.5895C74.3972 47.6383 74.1089 48.0536 73.7244 48.445C73.3399 48.8363 72.8456 49.1555 72.2414 49.4027C71.6373 49.6499 70.9164 49.7734 70.0788 49.7734C68.8911 49.7734 67.8097 49.4988 66.8348 48.9496C65.8668 48.3935 65.0944 47.5456 64.5177 46.4059C63.9479 45.2594 63.663 43.8107 63.663 42.06C63.663 40.2681 63.9547 38.7714 64.5383 37.57C65.1219 36.3685 65.8977 35.4691 66.8657 34.8718C67.8406 34.2745 68.9082 33.9759 70.0685 33.9759C70.9542 33.9759 71.6956 34.1269 72.2929 34.429C72.8902 34.7242 73.3708 35.0949 73.7347 35.5412C74.1054 35.9806 74.3904 36.4131 74.5895 36.8388H74.7542V34.1818H79.1104V50.1545C79.1104 51.5001 78.7809 52.6261 78.1218 53.5323C77.4627 54.4386 76.5496 55.1183 75.3824 55.5714C74.2221 56.0314 72.8868 56.2614 71.3764 56.2614ZM71.4691 46.478C72.1762 46.478 72.7735 46.3029 73.261 45.9528C73.7553 45.5958 74.1329 45.0877 74.3938 44.4286C74.6615 43.7627 74.7954 42.9663 74.7954 42.0394C74.7954 41.1126 74.665 40.3093 74.4041 39.6296C74.1432 38.9431 73.7656 38.411 73.2713 38.0334C72.777 37.6558 72.1762 37.467 71.4691 37.467C70.7482 37.467 70.1406 37.6626 69.6463 38.054C69.152 38.4384 68.7778 38.974 68.5238 39.6605C68.2697 40.3471 68.1427 41.14 68.1427 42.0394C68.1427 42.9525 68.2697 43.7421 68.5238 44.408C68.7846 45.0671 69.1588 45.5786 69.6463 45.9425C70.1406 46.2995 70.7482 46.478 71.4691 46.478ZM88.8785 50.3089C87.2789 50.3089 85.8955 49.9691 84.7283 49.2894C83.5681 48.6029 82.6721 47.6486 82.0405 46.4265C81.4089 45.1976 81.093 43.773 81.093 42.1527C81.093 40.5187 81.4089 39.0907 82.0405 37.8686C82.6721 36.6397 83.5681 35.6854 84.7283 35.0057C85.8955 34.3191 87.2789 33.9759 88.8785 33.9759C90.4782 33.9759 91.8582 34.3191 93.0185 35.0057C94.1856 35.6854 95.085 36.6397 95.7166 37.8686C96.3482 39.0907 96.6641 40.5187 96.6641 42.1527C96.6641 43.773 96.3482 45.1976 95.7166 46.4265C95.085 47.6486 94.1856 48.6029 93.0185 49.2894C91.8582 49.9691 90.4782 50.3089 88.8785 50.3089ZM88.8991 46.9105C89.6269 46.9105 90.2345 46.7045 90.7219 46.2926C91.2094 45.8738 91.5767 45.304 91.8239 44.5831C92.0779 43.8622 92.2049 43.0418 92.2049 42.1218C92.2049 41.2018 92.0779 40.3814 91.8239 39.6605C91.5767 38.9396 91.2094 38.3698 90.7219 37.951C90.2345 37.5322 89.6269 37.3228 88.8991 37.3228C88.1645 37.3228 87.5466 37.5322 87.0455 37.951C86.5511 38.3698 86.177 38.9396 85.9229 39.6605C85.6758 40.3814 85.5522 41.2018 85.5522 42.1218C85.5522 43.0418 85.6758 43.8622 85.9229 44.5831C86.177 45.304 86.5511 45.8738 87.0455 46.2926C87.5466 46.7045 88.1645 46.9105 88.8991 46.9105Z" fill="#EDEEF3"/>
<rect x="420" y="30" width="20" height="20" rx="10" fill="#F1F2F7"/>
<rect x="450" y="30" width="20" height="20" rx="10" fill="#F1F2F7"/>
<rect x="20" y="70" width="145" height="310" rx="15" fill="white"/>
<rect x="35" y="85" width="115" height="25" rx="12.5" fill="#F1F2F7"/>
<rect x="35" y="121" width="115" height="25" rx="12.5" fill="#F1F2F7"/>
<rect x="35" y="157" width="115" height="25" rx="12.5" fill="#F1F2F7"/>
<rect x="35" y="193" width="115" height="25" rx="12.5" fill="#F1F2F7"/>
<g opacity="0.8">
<rect x="175" y="70" width="79" height="90" rx="15" fill="white"/>
<rect x="259" y="70" width="108" height="90" rx="15" fill="white"/>
<rect x="372" y="70" width="108" height="90" rx="15" fill="white"/>
<rect x="175" y="165" width="305" height="53" rx="15" fill="white"/>
<rect x="175" y="223" width="150" height="157" rx="15" fill="white"/>
<rect x="330" y="223" width="150" height="157" rx="15" fill="white"/>
</g>
</svg>
